<?xml version="1.0" encoding="iso-8859-1"?>
<!-- Generator: Adobe Illustrator 15.1.0, SVG Export Plug-In . SVG Version: 6.00 Build 0)  -->
<!DOCTYPE svg PUBLIC "-//W3C//DTD SVG 1.1//EN" "http://www.w3.org/Graphics/SVG/1.1/DTD/svg11.dtd">
<svg version="1.1" id="&#x30EC;&#x30A4;&#x30E4;&#x30FC;_1"
	 xmlns="http://www.w3.org/2000/svg" xmlns:xlink="http://www.w3.org/1999/xlink" x="0px" y="0px" width="471.936px"
	 height="89.922px" viewBox="0 0 471.936 89.922" style="enable-background:new 0 0 471.936 89.922;" xml:space="preserve">
<g>
	<g>
		<path d="M92.421,74.771c3.592,0,4.821,1.966,4.821,7.015s-1.229,7.015-4.821,7.015s-4.822-1.966-4.822-7.015
			S88.829,74.771,92.421,74.771z M92.421,86.419c1.077,0,1.19-0.984,1.19-4.633c0-3.649-0.113-4.632-1.19-4.632
			c-1.078,0-1.191,0.982-1.191,4.632C91.229,85.435,91.343,86.419,92.421,86.419z"/>
		<path d="M99.592,75.037h5.274c2.685,0,3.896,1.795,3.896,4.159c0,2.761-1.569,4.197-4.424,4.197h-1.229v5.143h-3.518V75.037z
			 M103.109,80.859h0.66c0.889,0,1.361-0.51,1.361-1.645c0-1.115-0.473-1.646-1.361-1.646h-0.66V80.859z"/>
		<path d="M110.954,75.037h7.998v2.873h-4.48v2.307h4.196v2.761h-4.196v2.685h4.65v2.874h-8.168V75.037z"/>
		<path d="M121.567,75.037h3.933l2.27,8.318h0.037v-8.318h3.291v13.499h-3.857l-2.346-8.338h-0.037v8.338h-3.29V75.037z"/>
		<path d="M145.361,78.932v-0.322c0-0.794-0.321-1.455-1.002-1.455c-0.757,0-1.098,0.586-1.098,1.19
			c0,2.666,5.749,1.361,5.749,6.297c0,2.873-1.684,4.159-4.784,4.159c-2.911,0-4.537-1.003-4.537-3.801v-0.473h3.402v0.322
			c0,1.152,0.473,1.569,1.154,1.569c0.719,0,1.134-0.567,1.134-1.305c0-2.666-5.521-1.343-5.521-6.126
			c0-2.724,1.456-4.217,4.424-4.217c3.063,0,4.368,1.267,4.368,4.16H145.361z"/>
		<path d="M155.847,74.771c3.592,0,4.821,1.966,4.821,7.015s-1.229,7.015-4.821,7.015s-4.821-1.966-4.821-7.015
			S152.255,74.771,155.847,74.771z M155.847,86.419c1.078,0,1.191-0.984,1.191-4.633c0-3.649-0.113-4.632-1.191-4.632
			c-1.077,0-1.19,0.982-1.19,4.632C154.656,85.435,154.77,86.419,155.847,86.419z"/>
		<path d="M166.498,75.037v9.736c0,1.305,0.396,1.646,1.059,1.646s1.06-0.341,1.06-1.646v-9.736h3.516v8.848
			c0,3.781-1.626,4.916-4.575,4.916s-4.574-1.135-4.574-4.916v-8.848H166.498z"/>
		<path d="M174.816,75.037h5.503c2.685,0,3.705,1.512,3.705,3.592c0,1.796-0.699,2.968-2.306,3.214v0.038
			c1.701,0.15,2.212,1.229,2.212,3.024v1.154c0,0.699,0,1.606,0.17,1.871c0.095,0.151,0.17,0.303,0.396,0.416v0.189h-3.743
			c-0.34-0.719-0.34-2.004-0.34-2.571v-0.908c0-1.53-0.303-1.928-1.154-1.928h-0.926v5.407h-3.518V75.037z M178.334,80.746h0.699
			c1.002,0,1.476-0.643,1.476-1.606c0-1.097-0.436-1.57-1.495-1.57h-0.68V80.746z"/>
		<path d="M192.067,79.14c0-1.532-0.283-1.985-0.964-1.985c-1.078,0-1.191,0.982-1.191,4.632c0,3.648,0.113,4.633,1.191,4.633
			c0.87,0,1.059-0.757,1.059-3.31h3.403v1.002c0,3.782-2.212,4.689-4.462,4.689c-3.952,0-4.822-1.985-4.822-7.015
			c0-5.162,1.173-7.015,4.822-7.015c3.176,0,4.367,1.664,4.367,4.273v0.851h-3.403V79.14z"/>
		<path d="M197.955,75.037h7.998v2.873h-4.48v2.307h4.197v2.761h-4.197v2.685h4.65v2.874h-8.168V75.037z"/>
		<path d="M214.752,75.037h5.502c2.686,0,3.705,1.512,3.705,3.592c0,1.796-0.698,2.968-2.306,3.214v0.038
			c1.701,0.15,2.212,1.229,2.212,3.024v1.154c0,0.699,0,1.606,0.17,1.871c0.094,0.151,0.17,0.303,0.396,0.416v0.189h-3.742
			c-0.342-0.719-0.342-2.004-0.342-2.571v-0.908c0-1.53-0.301-1.928-1.152-1.928h-0.927v5.407h-3.517V75.037z M218.269,80.746h0.7
			c1.002,0,1.475-0.643,1.475-1.606c0-1.097-0.436-1.57-1.494-1.57h-0.681V80.746z"/>
		<path d="M226.654,75.037h7.996v2.873h-4.48v2.307h4.198v2.761h-4.198v2.685h4.651v2.874h-8.167V75.037z"/>
		<path d="M237.203,75.037h5.275c2.684,0,3.895,1.795,3.895,4.159c0,2.761-1.57,4.197-4.424,4.197h-1.229v5.143h-3.518V75.037z
			 M240.721,80.859h0.661c0.888,0,1.36-0.51,1.36-1.645c0-1.115-0.473-1.646-1.36-1.646h-0.661V80.859z"/>
		<path d="M253.163,74.771c3.592,0,4.82,1.966,4.82,7.015s-1.229,7.015-4.82,7.015c-3.594,0-4.822-1.966-4.822-7.015
			S249.569,74.771,253.163,74.771z M253.163,86.419c1.078,0,1.191-0.984,1.191-4.633c0-3.649-0.113-4.632-1.191-4.632
			s-1.191,0.982-1.191,4.632C251.971,85.435,252.084,86.419,253.163,86.419z"/>
		<path d="M260.398,75.037h5.502c2.686,0,3.707,1.512,3.707,3.592c0,1.796-0.699,2.968-2.307,3.214v0.038
			c1.701,0.15,2.213,1.229,2.213,3.024v1.154c0,0.699,0,1.606,0.168,1.871c0.096,0.151,0.172,0.303,0.398,0.416v0.189h-3.742
			c-0.342-0.719-0.342-2.004-0.342-2.571v-0.908c0-1.53-0.303-1.928-1.154-1.928h-0.926v5.407h-3.518V75.037z M263.916,80.746h0.699
			c1.002,0,1.475-0.643,1.475-1.606c0-1.097-0.436-1.57-1.494-1.57h-0.68V80.746z"/>
		<path d="M274.287,78.024h-2.648v-2.987h8.813v2.987h-2.648v10.512h-3.516V78.024z"/>
		<path d="M282.416,75.037h3.518v13.499h-3.518V75.037z"/>
		<path d="M288.619,75.037h3.932l2.27,8.318h0.037v-8.318h3.291v13.499h-3.857l-2.344-8.338h-0.039v8.338h-3.289V75.037z"/>
		<path d="M305.459,81.2h4.539v7.336h-2.383l-0.076-1.191h-0.037c-0.473,1.153-1.721,1.456-2.912,1.456
			c-3.574,0-3.895-2.553-3.895-7.015c0-4.52,0.869-7.015,5.029-7.015c2.496,0,4.273,1.267,4.273,4.538h-3.404
			c0-0.681-0.057-1.21-0.189-1.569c-0.133-0.379-0.396-0.586-0.813-0.586c-1.152,0-1.266,0.982-1.266,4.632
			c0,3.648,0.113,4.633,1.191,4.633c0.736,0,1.172-0.474,1.189-2.836h-1.248V81.2z"/>
		<path d="M324.035,78.932v-0.322c0-0.794-0.322-1.455-1.002-1.455c-0.758,0-1.098,0.586-1.098,1.19
			c0,2.666,5.748,1.361,5.748,6.297c0,2.873-1.682,4.159-4.783,4.159c-2.912,0-4.539-1.003-4.539-3.801v-0.473h3.404v0.322
			c0,1.152,0.473,1.569,1.154,1.569c0.717,0,1.133-0.567,1.133-1.305c0-2.666-5.52-1.343-5.52-6.126
			c0-2.724,1.455-4.217,4.424-4.217c3.063,0,4.367,1.267,4.367,4.16H324.035z"/>
		<path d="M334.52,74.771c3.592,0,4.82,1.966,4.82,7.015s-1.229,7.015-4.82,7.015s-4.822-1.966-4.822-7.015
			S330.928,74.771,334.52,74.771z M334.52,86.419c1.078,0,1.191-0.984,1.191-4.633c0-3.649-0.113-4.632-1.191-4.632
			s-1.191,0.982-1.191,4.632C333.328,85.435,333.441,86.419,334.52,86.419z"/>
		<path d="M341.756,75.037h3.52v10.625h4.328v2.874h-7.848V75.037z"/>
		<path d="M355.09,75.037v9.736c0,1.305,0.396,1.646,1.061,1.646c0.66,0,1.059-0.341,1.059-1.646v-9.736h3.516v8.848
			c0,3.781-1.625,4.916-4.574,4.916c-2.951,0-4.576-1.135-4.576-4.916v-8.848H355.09z"/>
		<path d="M365.34,78.024h-2.646v-2.987h8.811v2.987h-2.646v10.512h-3.518V78.024z"/>
		<path d="M373.471,75.037h3.516v13.499h-3.516V75.037z"/>
		<path d="M384.156,74.771c3.592,0,4.82,1.966,4.82,7.015s-1.229,7.015-4.82,7.015s-4.822-1.966-4.822-7.015
			S380.564,74.771,384.156,74.771z M384.156,86.419c1.076,0,1.189-0.984,1.189-4.633c0-3.649-0.113-4.632-1.189-4.632
			c-1.078,0-1.191,0.982-1.191,4.632C382.965,85.435,383.078,86.419,384.156,86.419z"/>
		<path d="M391.393,75.037h3.934l2.27,8.318h0.037v-8.318h3.289v13.499h-3.857l-2.344-8.338h-0.039v8.338h-3.289V75.037z"/>
	</g>
	<g>
		<rect style="fill:#FFFFFF;" width="78.628" height="89.922"/>
		<rect x="71.47" y="29.115" width="5.337" height="10.47"/>
		<rect x="61.525" y="44.186" width="5.339" height="10.47"/>
		<rect x="51.599" y="31.662" width="25.208" height="5.339"/>
		<rect x="51.599" y="41.884" width="25.208" height="5.336"/>
		<rect x="51.599" y="52.101" width="25.208" height="5.339"/>
		<rect x="51.599" y="62.325" width="21.296" height="5.337"/>
		<rect x="71.6" y="62.325" width="5.207" height="5.337"/>
		<polygon points="62.564,77.88 51.599,82.609 51.599,88.101 76.807,88.101 76.807,82.763 65.844,82.763 76.807,78.034 
			76.807,72.543 51.599,72.541 51.599,77.88 		"/>
		<rect x="23.385" y="31.662" width="25.209" height="5.339"/>
		<rect x="23.385" y="41.884" width="25.209" height="5.336"/>
		<rect x="23.385" y="52.101" width="25.209" height="5.339"/>
		<rect x="23.385" y="72.541" width="25.209" height="5.341"/>
		<rect x="23.385" y="82.764" width="25.209" height="5.338"/>
		<rect x="23.385" y="62.325" width="25.209" height="5.337"/>
		<rect x="1.819" y="82.764" width="15.016" height="5.338"/>
		<rect x="1.819" y="1.823" width="5.339" height="86.278"/>
		<rect x="1.819" y="1.823" width="74.989" height="5.334"/>
		<rect x="71.47" y="1.823" width="5.337" height="20.742"/>
	</g>
	<path d="M471.936,26.874v-8.216l-5.121-5.412h-18.957l-5.119,5.412v19.42l5.119,5.412h12.998l1.879,1.974v7.35l-1.879,1.973h-7.037
		l-1.879-1.973v-2.181h-9.201v8.215l5.119,5.414h18.957l5.121-5.414V39.429l-5.121-5.412h-12.996l-1.879-1.975v-7.349l1.879-1.974
		h7.037l1.879,1.974v2.181H471.936z M204.033,42.422l-10.976-29.115l-9.021-0.094v51.022h9.199V35.116l10.978,29.119h9.02V13.22
		h-9.199V42.422z M165.648,64.235h9.2V13.22h-9.2V64.235z M86.276,13.437h12.681v50.799h10.992V13.437h12.682V2.109H86.276V13.437z
		 M342.498,13.22l-5.121,5.412v40.19l5.121,5.413h18.625l5.453-5.403v-40.2l-5.121-5.412H342.498z M357.375,52.786l-1.877,1.974
		h-7.041l-1.879-1.974V24.667l1.879-1.973h7.041l1.877,1.973V52.786z M147.454,33.99h-10.796V13.22h-9.2v51.016h9.2V43.464h10.796
		v20.771h9.201V13.22h-9.201V33.99z M302.029,13.22v51.016h9.199V43.464h14.545l5.453-5.4V17.508l-5.162-4.288H302.029z
		 M322.025,32.016l-1.879,1.975h-8.918V22.694h8.918l1.879,1.973V32.016z M403.361,38.063V18.632l-5.119-5.412h-24.076v51.016h9.199
		V43.464h4.934l5.27,20.771h9.955l-5.207-21.172L403.361,38.063z M394.162,32.016l-1.877,1.975h-8.92V22.694h8.92l1.877,1.973
		V32.016z M265.162,64.235h29.195v-9.477h-19.996V43.464h16.803V33.99h-16.803V22.694h19.996V13.22h-29.195V64.235z M408.533,22.694
		h9.996v41.541h9.203V22.694h9.996V13.22h-29.195V22.694z M257.225,32.665V8.293l-5.828-6.185h-29.066v62.127h10.991V38.836h6.064
		l6.086,25.399h11.9l-5.98-25.798L257.225,32.665z M246.233,25.86l-1.534,1.649h-11.377V13.436h11.377l1.534,1.647V25.86z"/>
</g>
</svg>
